<svg clip-rule="evenodd" fill-rule="evenodd" stroke-linejoin="round" stroke-miterlimit="2" viewBox="0 0 560 400" xmlns="http://www.w3.org/2000/svg"><g fill-rule="nonzero" transform="matrix(3.17495 0 0 3.17495 35.7049 153.519)"><path d="m29.858 14.639.945.945-10.393 10.395-.945-.945z" fill="#008393"/><path d="m16.629 7.081.945-.945 9.45 9.45-.946.944z" fill="#df1417"/><path d="m14.74 8.971.944-.945 6.615 6.614-.945.945z" fill="#df1417"/><path d="m13.795 2.356.945.945-4.724 4.725-.946-.945z" fill="#008393"/><path d="m1.511 14.64 13.228 13.229-.944.944-13.229-13.229z" fill="#008393"/><path d="m7.181 12.751 6.614-6.614.945.944-6.615 6.614z" fill="#df1417"/><path d="m14.74 25.979 6.614-6.614.945.944-6.614 6.614z" fill="#df1417"/><path d="m15.685.466 10.395 10.395-.945.944-10.394-10.394z" fill="#008393"/><path d="m3.401 12.751 2.835 2.834-.945.945-2.835-2.835z" fill="#008393"/><g fill="#df1417"><path d="m47.227 14.658c0 2.261-1.54 3.541-3.86 3.541h-1.58v-7.121h1.58c2.32 0 3.86 1.301 3.86 3.54zm3.98-.1c0-4.04-2.9-6.92-7.9-6.92h-5.401v14h5.321c5.04 0 7.98-3 7.98-7.04z"/><path d="m65.204 11.038h4.201v10.601h3.88v-10.601h4.2v-3.399h-12.281z"/><path d="m106.823 12.738-2.88-5.1h-8.139l-2.44 8.1-2.7-8.14h-3.34l-2.7 8.14-2.441-8.1h-4.099l4.679 14.101h3.38l2.801-8.061 2.82 8.061h3.38l4.574-13.779 5.125 8.438v5.24h3.9v-5.299l5.32-8.701h-4.34z"/><path d="m118.983 7.638h-3.881v14h10.661v-3.4h-6.78z"/><path d="m131.103 16.119h6.721v-3.061h-6.721v-2.12h7.421v-3.299h-11.262v14h11.361v-3.3h-7.52z"/><path d="m148.963 12.698c0 1.021-.76 1.66-2.08 1.66h-2.56v-3.36h2.54c1.3 0 2.1.56 2.1 1.66zm1.021 4.061c1.74-.741 2.879-2.161 2.879-4.3v-.04c0-1.381-.42-2.461-1.24-3.261-.94-.96-2.42-1.52-4.559-1.52h-6.622v14h3.881v-4.24h1.701l2.819 4.24h4.48z"/><path d="m60.626 7.538h-3.74l-1.482 3.505h6.703z"/><path d="m58.82 12.379 1.466 3.74h-3.14l1.485-3.74h-3.791l-3.915 9.26h4.081l1-2.5h5.4l1.02 2.5h4.16l-3.914-9.26z"/></g></g></svg>